<mxfile host="app.diagrams.net" modified="2023-04-27T08:07:23.188Z" agent="Mozilla/5.0 (Windows NT 10.0; Win64; x64) AppleWebKit/537.36 (KHTML, like Gecko) Chrome/112.0.0.0 Safari/537.36" version="21.2.3" etag="DVHbfHZBun4bNUxE89kC" type="github">
  <diagram name="Page-1" id="alHHzCFo8Hk3tJtqaPZr">
    <mxGraphModel>
      <root>
        <mxCell id="0" />
        <mxCell id="1" parent="0" />
      </root>
    </mxGraphModel>
  </diagram>
</mxfile>
